<svg width="33" height="32" viewBox="0 0 33 32" fill="none" xmlns="http://www.w3.org/2000/svg">
<path d="M11.0377 25.7664C11.0377 25.8987 10.8847 26.0046 10.6917 26.0046C10.4722 26.0244 10.3192 25.9185 10.3192 25.7664C10.3192 25.634 10.4722 25.5281 10.6651 25.5281C10.8647 25.5083 11.0377 25.6142 11.0377 25.7664ZM8.96855 25.4686C8.92198 25.6009 9.05504 25.7531 9.25464 25.7928C9.42762 25.859 9.62722 25.7928 9.66714 25.6605C9.70706 25.5281 9.58065 25.376 9.38105 25.3164C9.20807 25.2701 9.01512 25.3362 8.96855 25.4686ZM11.9093 25.3561C11.7163 25.4024 11.5833 25.5281 11.6032 25.6803C11.6232 25.8127 11.7962 25.8987 11.9958 25.8524C12.1887 25.8061 12.3218 25.6803 12.3018 25.548C12.2819 25.4223 12.1022 25.3363 11.9093 25.3561ZM16.2871 0C7.05907 0 0 6.96763 0 16.1453C0 23.4835 4.64395 29.763 11.2772 31.973C12.1288 32.1252 12.4282 31.6025 12.4282 31.1724C12.4282 30.7621 12.4083 28.4991 12.4083 27.1096C12.4083 27.1096 7.75101 28.1021 6.77298 25.1377C6.77298 25.1377 6.01452 23.2122 4.92339 22.7159C4.92339 22.7159 3.3998 21.6771 5.02984 21.6969C5.02984 21.6969 6.68649 21.8293 7.59798 23.4041C9.05504 25.9582 11.4968 25.2238 12.4482 24.787C12.6012 23.7283 13.0337 22.9939 13.5127 22.5571C9.79355 22.1469 6.04113 21.6109 6.04113 15.2454C6.04113 13.4258 6.54677 12.5126 7.61129 11.348C7.43831 10.9179 6.87278 9.14461 7.78427 6.85515C9.1748 6.42505 12.375 8.64172 12.375 8.64172C13.7056 8.27117 15.1361 8.07928 16.5532 8.07928C17.9704 8.07928 19.4008 8.27117 20.7315 8.64172C20.7315 8.64172 23.9317 6.41843 25.3222 6.85515C26.2337 9.15122 25.6681 10.9179 25.4952 11.348C26.5597 12.5192 27.2117 13.4324 27.2117 15.2454C27.2117 21.6308 23.2929 22.1403 19.5738 22.5571C20.1859 23.0799 20.7048 24.0724 20.7048 25.6274C20.7048 27.8573 20.6849 30.6166 20.6849 31.1592C20.6849 31.5893 20.9909 32.112 21.8359 31.9598C28.4891 29.763 33 23.4835 33 16.1453C33 6.96763 25.5151 0 16.2871 0ZM6.46694 22.8218C6.38044 22.888 6.4004 23.0402 6.51351 23.1659C6.61996 23.2718 6.77298 23.3181 6.85948 23.2321C6.94597 23.1659 6.92601 23.0137 6.8129 22.888C6.70645 22.7821 6.55343 22.7358 6.46694 22.8218ZM5.74839 22.2858C5.70181 22.3719 5.76835 22.4777 5.90141 22.5439C6.00786 22.6101 6.14093 22.5902 6.1875 22.4976C6.23407 22.4116 6.16754 22.3057 6.03448 22.2395C5.90141 22.1998 5.79496 22.2197 5.74839 22.2858ZM7.90403 24.6415C7.79758 24.7275 7.8375 24.926 7.99052 25.0517C8.14355 25.2039 8.33649 25.2238 8.42298 25.1179C8.50948 25.0319 8.46956 24.8334 8.33649 24.7076C8.19012 24.5555 7.99052 24.5356 7.90403 24.6415ZM7.14557 23.6688C7.03911 23.735 7.03911 23.907 7.14557 24.0592C7.25202 24.2114 7.43165 24.2775 7.51815 24.2114C7.6246 24.1254 7.6246 23.9533 7.51815 23.8011C7.425 23.6489 7.25202 23.5828 7.14557 23.6688Z" fill="#0F172A"/>
</svg>
