<svg width="36" height="32" viewBox="0 0 36 32" fill="none" xmlns="http://www.w3.org/2000/svg">
<path d="M8.46988 32.0005H1.13312V10.6357H8.46988V32.0005ZM4.79755 7.72137C2.4515 7.72137 0.548584 5.96419 0.548584 3.84272C0.548584 2.82369 0.996242 1.84641 1.79308 1.12585C2.58991 0.405293 3.67065 0.000488281 4.79755 0.000488281C5.92445 0.000488281 7.00519 0.405293 7.80202 1.12585C8.59886 1.84641 9.04652 2.82369 9.04652 3.84272C9.04652 5.96419 7.14282 7.72137 4.79755 7.72137ZM35.929 32.0005H28.608V21.6003C28.608 19.1216 28.5527 15.943 24.7935 15.943C20.979 15.943 20.3945 18.6359 20.3945 21.4217V32.0005H13.0656V10.6357H20.1022V13.5501H20.2049C21.1844 11.8715 23.577 10.1 27.1467 10.1C34.5719 10.1 35.9369 14.5215 35.9369 20.2645V32.0005H35.929Z" fill="#0F172A"/>
</svg>
