<svg width="38" height="32" viewBox="0 0 38 32" fill="none" xmlns="http://www.w3.org/2000/svg">
<path d="M33.4632 7.97497C33.4867 8.32495 33.4867 8.67501 33.4867 9.025C33.4867 19.6999 25.8281 32 11.8304 32C7.51796 32 3.51191 30.6749 0.14209 28.375C0.754805 28.45 1.34387 28.475 1.98016 28.475C5.53844 28.475 8.81404 27.2 11.4298 25.025C8.08352 24.95 5.27926 22.625 4.31308 19.425C4.78442 19.4999 5.25569 19.55 5.75061 19.55C6.43397 19.55 7.11741 19.4499 7.75363 19.275C4.266 18.5249 1.65019 15.275 1.65019 11.35V11.25C2.66346 11.85 3.84181 12.225 5.09067 12.275C3.0405 10.8249 1.69734 8.34996 1.69734 5.54994C1.69734 4.04997 2.07432 2.67497 2.73418 1.47496C6.48105 6.37496 12.1131 9.5749 18.4285 9.92496C18.3107 9.32496 18.24 8.70002 18.24 8.07501C18.24 3.62496 21.6334 0 25.8515 0C28.0431 0 30.0225 0.974998 31.4129 2.55C33.1331 2.20002 34.7827 1.52498 36.2438 0.600004C35.6781 2.47505 34.4763 4.05005 32.8975 5.04998C34.4293 4.87506 35.9139 4.42496 37.2806 3.80003C36.2439 5.39996 34.9478 6.8249 33.4632 7.97497Z" fill="#0F172A"/>
</svg>
